<?xml version="1.0" standalone="no"?>
<!DOCTYPE svg PUBLIC "-//W3C//DTD SVG 20010904//EN"
 "http://www.w3.org/TR/2001/REC-SVG-20010904/DTD/svg10.dtd">
<svg version="1.0" xmlns="http://www.w3.org/2000/svg"
 width="1000.000000pt" height="817.000000pt" viewBox="0 0 1000.000000 817.000000"
 preserveAspectRatio="xMidYMid meet">
<metadata>
Created by potrace 1.15, written by Peter Selinger 2001-2017
</metadata>
<g transform="translate(0.000000,817.000000) scale(0.100000,-0.100000)"
fill="#000000" stroke="none">
<path d="M4560 8025 c-202 -19 -400 -46 -395 -55 2 -4 -6 -5 -18 -3 -12 2 -83
-10 -157 -28 -74 -17 -149 -33 -167 -36 -24 -4 -30 -9 -26 -22 3 -11 2 -12 -4
-3 -11 15 -76 5 -66 -11 4 -6 0 -8 -11 -4 -9 4 -36 0 -59 -9 -23 -8 -49 -16
-57 -18 -58 -15 -70 -19 -70 -27 0 -5 -6 -6 -13 -3 -8 3 -36 -5 -63 -17 -27
-12 -51 -23 -54 -24 -40 -9 -110 -39 -110 -45 0 -5 -7 -7 -15 -4 -8 4 -15 1
-15 -5 0 -6 -3 -10 -7 -9 -16 3 -63 -15 -63 -24 0 -5 -4 -7 -8 -4 -13 8 -313
-144 -307 -154 4 -6 -1 -7 -11 -3 -13 5 -15 3 -9 -7 5 -9 4 -11 -3 -6 -6 4
-22 0 -34 -8 -13 -8 -39 -22 -58 -33 -61 -32 -220 -138 -220 -147 0 -5 6 -3
14 3 11 9 16 9 22 0 4 -7 3 -9 -4 -5 -6 3 -13 2 -17 -3 -3 -6 -12 -8 -20 -5
-18 7 -67 -26 -61 -41 3 -8 -2 -11 -15 -8 -13 4 -19 0 -19 -11 0 -10 -4 -14
-10 -11 -5 3 -21 -2 -35 -11 -18 -12 -23 -20 -15 -29 8 -9 5 -11 -13 -8 -14 3
-29 -2 -38 -13 -12 -15 -12 -16 0 -9 10 5 12 4 7 -4 -4 -6 -11 -9 -15 -6 -9 5
-80 -47 -93 -68 -4 -6 -4 -15 -2 -19 3 -4 -1 -5 -9 -2 -14 5 -86 -50 -177
-136 -21 -19 -41 -36 -46 -38 -5 -2 -8 -10 -8 -17 1 -8 -3 -12 -8 -9 -13 8
-69 -46 -61 -59 3 -6 2 -8 -3 -5 -5 3 -29 -14 -54 -39 -25 -25 -39 -42 -31
-38 9 6 12 4 7 -3 -4 -7 -13 -12 -19 -12 -18 0 -80 -68 -72 -79 3 -6 0 -9 -7
-6 -8 3 -29 -10 -48 -30 -19 -19 -31 -35 -28 -35 3 0 -11 -18 -31 -39 -71 -77
-116 -132 -114 -142 2 -5 -2 -9 -8 -9 -6 0 -8 -7 -5 -16 5 -14 4 -15 -9 -4 -8
7 -15 8 -15 4 0 -8 -51 -76 -93 -124 -7 -8 -12 -25 -11 -37 1 -12 -3 -20 -8
-17 -4 3 -6 10 -3 15 4 5 4 9 2 9 -2 0 -18 -20 -36 -45 -18 -25 -29 -45 -25
-45 4 0 -1 -9 -12 -20 -40 -40 -43 -47 -31 -60 9 -10 9 -11 -1 -6 -7 5 -20 -2
-32 -16 -22 -26 -26 -43 -8 -32 7 4 8 3 4 -5 -4 -6 -11 -9 -16 -6 -12 8 -31
-30 -24 -48 3 -8 1 -18 -5 -22 -7 -4 -8 0 -4 11 4 12 3 15 -5 10 -7 -4 -12
-14 -12 -22 0 -8 -4 -14 -10 -14 -5 0 -10 -6 -10 -14 0 -8 -5 -16 -10 -18 -6
-2 -17 -21 -25 -43 -8 -22 -14 -35 -15 -30 0 14 -30 -44 -30 -60 0 -7 -7 -18
-16 -26 -23 -19 -66 -108 -58 -121 4 -6 3 -8 -3 -5 -15 10 -45 -59 -38 -86 4
-14 3 -17 -2 -10 -12 16 -47 -42 -39 -63 3 -8 1 -12 -4 -9 -8 5 -38 -50 -44
-80 -1 -5 -5 -16 -9 -22 -5 -7 -5 -18 -1 -25 4 -6 3 -8 -3 -5 -13 8 -26 -20
-17 -35 3 -5 0 -17 -8 -26 -8 -9 -24 -41 -36 -71 -17 -41 -19 -57 -11 -68 9
-11 9 -12 -3 -8 -11 4 -18 -3 -23 -27 -5 -18 -8 -39 -8 -45 0 -7 -3 -13 -7
-13 -6 0 -60 -172 -65 -210 -1 -8 -6 -23 -10 -32 -4 -10 -4 -25 -1 -34 3 -8 2
-12 -3 -9 -6 3 -13 -16 -16 -42 -4 -27 -10 -59 -15 -73 -25 -72 -72 -367 -85
-525 -3 -44 -8 -93 -10 -110 -2 -16 -9 -129 -16 -250 -12 -221 -8 -445 11
-605 13 -109 15 -118 23 -126 3 -3 4 -18 1 -33 -3 -14 0 -46 6 -71 12 -52 16
-74 24 -148 3 -29 9 -59 13 -65 4 -6 8 -25 10 -41 6 -56 66 -281 77 -288 6 -4
8 -10 4 -13 -6 -7 22 -118 43 -170 7 -17 11 -36 10 -42 -1 -7 3 -13 9 -13 6 0
9 -4 6 -9 -7 -11 28 -114 36 -106 4 4 5 -1 4 -12 -2 -10 8 -47 21 -83 13 -36
26 -71 29 -79 4 -11 8 -10 20 5 14 16 14 15 0 -8 -9 -16 -12 -28 -7 -28 5 0 8
-6 7 -13 -2 -23 58 -166 67 -160 6 3 7 2 4 -4 -4 -6 3 -34 14 -64 11 -30 23
-62 26 -71 3 -10 10 -18 15 -18 6 0 8 6 5 13 -3 8 1 14 9 14 12 0 12 -4 0 -23
-8 -12 -12 -25 -8 -29 4 -4 7 -10 7 -14 0 -9 38 -94 45 -101 3 -3 6 -13 8 -22
4 -25 89 -205 100 -212 5 -3 13 -22 16 -41 4 -20 11 -33 17 -30 5 4 10 0 11
-7 0 -7 2 -17 2 -23 3 -21 50 -110 63 -118 7 -5 11 -12 8 -17 -7 -11 54 -129
75 -148 8 -8 9 -11 3 -7 -9 4 -11 1 -7 -9 3 -9 11 -13 17 -9 5 3 7 1 4 -5 -10
-15 42 -114 55 -106 6 4 8 2 4 -4 -9 -15 45 -123 58 -115 5 4 7 0 3 -10 -3 -9
0 -18 9 -21 8 -3 14 -9 13 -13 -1 -4 -1 -14 0 -20 1 -10 268 -13 1302 -13 980
0 1298 3 1293 12 -5 7 -3 8 7 2 8 -4 23 -10 34 -11 14 -2 16 -1 7 6 -8 4 -13
11 -13 15 3 18 -1 26 -26 51 -16 16 -21 25 -14 20 9 -5 5 5 -7 22 -12 17 -22
34 -22 38 0 10 -62 98 -84 118 -11 9 -14 17 -7 17 7 0 9 5 6 10 -4 6 -11 8
-16 5 -5 -3 -6 1 -3 9 3 9 1 16 -6 16 -6 0 -9 4 -6 9 3 5 -1 12 -9 15 -8 3
-14 9 -14 13 4 16 -14 43 -24 36 -6 -3 -7 -1 -3 5 6 11 -47 105 -82 145 -9 10
-17 24 -18 30 -3 23 -85 142 -96 139 -5 -1 -6 3 -3 9 4 6 -2 24 -14 40 -11 15
-21 31 -21 35 0 3 -10 20 -22 37 -26 36 -40 59 -64 105 -10 17 -21 32 -26 32
-4 0 -15 18 -24 40 -9 23 -21 37 -27 33 -6 -3 -7 -1 -3 6 10 16 -12 41 -30 34
-9 -3 -13 -13 -9 -27 6 -20 5 -20 -6 -2 -10 16 -9 22 6 32 17 13 16 17 -16 69
-18 30 -37 55 -42 55 -4 0 -5 5 -2 10 3 6 2 10 -3 10 -6 0 -15 14 -21 30 -5
17 -15 30 -21 30 -6 0 -8 5 -5 10 3 6 1 10 -5 10 -6 0 -9 3 -7 8 3 4 -1 13 -9
19 -15 15 -29 0 -18 -19 5 -10 4 -10 -5 -2 -10 9 -10 16 0 32 11 17 9 25 -14
55 -15 20 -27 40 -27 46 0 5 -12 24 -27 42 -16 18 -22 29 -15 25 8 -5 1 11
-15 35 -15 24 -31 46 -36 47 -4 2 -5 8 -1 13 3 5 1 9 -5 9 -5 0 -12 -6 -15
-12 -3 -7 -3 -3 0 9 5 22 -13 65 -50 118 -12 17 -22 37 -24 45 -2 8 -10 20
-17 26 -8 6 -12 14 -8 17 3 4 0 7 -7 7 -7 0 -11 3 -7 6 3 4 -3 24 -14 46 -15
30 -25 38 -37 33 -13 -5 -14 -3 -5 6 15 15 -15 82 -33 75 -8 -3 -11 1 -8 9 9
22 -19 76 -35 70 -11 -4 -12 -3 -1 10 7 9 8 15 2 15 -6 0 -13 14 -17 30 -4 17
-11 30 -16 30 -6 0 -7 5 -4 10 3 6 2 10 -4 10 -5 0 -12 -6 -14 -12 -4 -10 -6
-10 -6 -1 -1 6 3 14 9 18 11 7 -8 55 -23 55 -5 0 -6 7 -3 16 3 9 2 12 -5 9 -6
-4 -9 -1 -8 6 5 23 -12 60 -23 53 -6 -4 -8 -3 -5 3 8 12 -14 73 -26 73 -4 0
-5 5 -2 10 3 6 2 10 -4 10 -6 0 -7 7 -4 17 5 12 3 14 -7 8 -9 -5 -11 -4 -6 3
4 6 -6 42 -22 79 -16 38 -40 98 -53 135 -13 36 -27 64 -32 61 -5 -3 -6 4 -2
16 4 12 2 21 -4 21 -6 0 -7 7 -4 17 4 11 3 14 -5 9 -7 -4 -10 -2 -7 6 7 19
-30 130 -40 121 -4 -5 -5 -2 -1 4 4 7 2 32 -5 55 -11 42 -13 51 -25 116 -3 17
-11 32 -16 32 -6 0 -8 7 -4 15 3 9 -1 50 -9 93 -22 112 -37 332 -30 442 14
235 31 403 46 454 6 21 8 47 6 57 -3 11 -2 17 2 14 4 -2 13 26 21 63 7 37 16
76 20 87 30 82 41 127 35 147 -4 14 -3 18 2 10 12 -15 67 123 57 141 -4 6 -4
9 1 5 8 -7 35 34 39 58 1 7 7 18 13 26 6 7 14 25 18 40 4 15 13 32 21 39 8 6
14 20 14 30 0 11 4 19 9 19 5 0 24 26 42 58 33 56 35 62 38 83 0 5 5 8 10 5 8
-5 33 37 36 59 0 6 7 8 15 7 8 -2 12 0 8 4 -4 3 10 27 32 51 22 25 39 48 38
52 -1 3 16 24 37 47 22 22 58 60 79 85 21 24 66 73 100 108 34 35 56 61 51 58
-6 -3 -17 -1 -25 4 -11 7 -7 8 14 5 30 -5 50 9 160 119 27 28 46 43 41 35 -12
-20 63 36 93 69 13 14 21 21 17 14 -3 -7 12 0 35 14 22 15 40 31 40 35 0 5 4
7 8 4 5 -3 18 4 30 14 12 11 26 20 32 20 6 0 8 4 5 10 -3 5 0 7 8 4 8 -3 21 2
30 10 9 9 21 16 27 16 6 0 8 5 4 12 -4 6 -3 8 3 5 11 -7 88 26 113 48 15 14
19 15 46 15 9 0 12 5 8 12 -5 8 -2 9 9 5 9 -3 23 0 31 8 7 8 16 11 20 8 3 -4
6 -1 6 6 0 7 4 10 8 7 8 -5 150 42 198 65 11 6 31 12 45 13 13 2 44 9 69 16
228 63 580 86 840 55 138 -17 146 -18 275 -46 50 -11 99 -21 111 -23 40 -8
109 -29 142 -43 18 -8 38 -11 45 -7 6 4 9 4 5 -1 -4 -4 34 -25 85 -45 50 -21
129 -56 175 -79 46 -23 88 -39 94 -35 6 4 8 3 4 -4 -7 -12 81 -65 95 -56 5 3
8 1 7 -4 -4 -13 69 -63 93 -65 10 -1 16 -4 13 -8 -8 -14 62 -59 84 -54 13 2
20 0 17 -6 -4 -5 -12 -6 -18 -2 -7 3 -3 -3 7 -15 21 -24 32 -29 20 -10 -4 6
12 -8 34 -30 42 -42 78 -59 51 -24 -12 15 -12 16 2 5 9 -7 20 -9 25 -5 4 4 2
-1 -5 -11 -12 -15 -10 -21 12 -43 14 -14 31 -23 37 -19 6 4 9 2 8 -2 -5 -14
174 -193 185 -186 6 3 7 1 3 -5 -4 -7 -2 -12 3 -12 6 0 11 -6 11 -13 0 -7 14
-26 30 -42 27 -26 45 -24 19 2 -8 8 -7 13 3 18 7 5 10 5 6 0 -4 -4 -3 -14 3
-21 6 -8 9 -20 6 -29 -4 -9 6 -25 26 -41 18 -14 25 -23 17 -18 -10 5 -9 0 4
-14 21 -24 32 -29 20 -10 -4 7 -3 8 5 4 6 -4 9 -12 6 -17 -4 -5 17 -42 45 -81
82 -118 101 -148 150 -245 26 -51 51 -89 55 -85 5 4 5 1 1 -6 -4 -7 2 -27 13
-46 12 -18 21 -42 21 -52 0 -16 2 -17 11 -4 8 12 9 11 4 -6 -3 -12 4 -42 16
-70 12 -27 22 -52 21 -56 -1 -5 3 -8 9 -8 5 0 8 -4 4 -9 -3 -6 6 -45 19 -88
69 -216 108 -539 100 -823 -4 -154 -15 -245 -49 -413 -13 -65 -22 -125 -19
-135 5 -14 4 -15 -5 -2 -9 12 -11 11 -13 -10 -1 -14 -2 -32 -3 -40 -1 -8 -7
-26 -15 -40 -7 -14 -12 -25 -11 -25 3 0 3 0 -31 -100 -12 -38 -22 -78 -20 -88
1 -10 -3 -15 -8 -12 -6 3 -10 1 -10 -5 0 -6 -20 -60 -44 -120 -32 -80 -40
-112 -32 -120 8 -8 6 -9 -9 -4 -18 7 -19 6 -5 -11 8 -10 10 -16 3 -12 -17 10
-43 -43 -37 -74 3 -19 3 -20 -4 -6 -7 17 -9 16 -20 -8 -7 -14 -10 -30 -7 -35
3 -5 1 -10 -4 -12 -5 -1 -11 -10 -13 -18 -2 -8 -6 -17 -10 -20 -3 -3 -8 -12
-10 -20 -2 -8 -9 -21 -16 -28 -7 -8 -10 -18 -7 -23 4 -5 1 -9 -5 -9 -7 0 -10
-7 -6 -15 3 -8 1 -15 -5 -15 -6 0 -9 -7 -5 -15 3 -8 2 -14 -2 -12 -4 1 -8 -2
-10 -8 -2 -5 -9 -17 -17 -25 -25 -29 -55 -99 -49 -117 4 -12 3 -14 -3 -6 -6 9
-14 5 -26 -17 -10 -16 -17 -32 -16 -37 3 -19 -2 -34 -9 -29 -10 6 -77 -123
-73 -142 1 -7 -4 -11 -11 -10 -7 2 -13 -4 -13 -12 0 -8 -6 -20 -14 -26 -8 -7
-11 -16 -6 -24 6 -9 4 -11 -5 -5 -10 6 -12 4 -7 -8 4 -10 2 -16 -5 -14 -7 1
-12 -2 -13 -8 -1 -12 -26 -58 -35 -65 -16 -12 -57 -96 -53 -109 3 -8 1 -11 -5
-7 -5 3 -17 -5 -25 -18 -12 -18 -13 -26 -4 -35 9 -9 8 -11 -3 -6 -11 4 -23 -7
-40 -37 -14 -24 -29 -50 -35 -59 -36 -59 -37 -62 -23 -53 7 4 -2 -8 -20 -26
-18 -19 -30 -40 -27 -48 3 -8 0 -10 -7 -6 -8 5 -9 1 -4 -12 4 -10 4 -15 0 -12
-6 6 -54 -55 -54 -68 0 -3 -9 -19 -21 -35 -11 -16 -17 -34 -13 -40 4 -7 3 -9
-3 -6 -9 6 -63 -62 -63 -78 0 -4 -14 -27 -32 -52 -17 -26 -31 -52 -31 -59 0
-7 -5 -10 -10 -7 -6 4 -8 0 -4 -10 4 -10 2 -16 -5 -14 -7 1 -12 -2 -13 -8 0
-5 -10 -24 -22 -41 -12 -17 -20 -34 -16 -38 3 -3 2 -6 -4 -6 -6 0 -18 -12 -28
-26 -9 -15 -13 -24 -8 -21 5 3 9 -3 9 -14 0 -12 -4 -15 -10 -9 -6 6 -16 -1
-28 -20 -21 -35 -23 -44 -6 -34 7 4 8 3 4 -5 -4 -6 -11 -9 -16 -6 -10 6 -53
-61 -46 -73 2 -4 0 -14 -6 -22 -8 -12 -8 -11 -3 5 4 13 3 17 -4 10 -5 -5 -11
-16 -13 -24 -2 -7 -13 -25 -25 -39 -13 -14 -23 -29 -23 -33 0 -4 -13 -28 -30
-52 -16 -25 -30 -49 -30 -55 0 -5 -7 -15 -15 -22 -9 -7 -14 -19 -11 -26 3 -7
0 -16 -6 -20 -7 -5 -8 -2 -3 6 5 9 4 11 -3 6 -7 -4 -12 -11 -12 -16 0 -4 -20
-42 -45 -84 l-45 -76 1319 0 c1243 0 1319 1 1333 18 23 26 58 99 51 106 -4 3
-2 6 3 6 15 0 46 59 38 72 -5 7 -3 8 6 3 10 -6 12 -4 7 9 -4 9 -3 15 1 12 10
-6 244 462 237 475 -4 5 -2 9 4 9 9 0 27 40 22 49 -2 2 2 7 9 11 6 4 12 13 14
21 1 8 16 43 34 78 35 69 37 75 22 66 -6 -3 -7 1 -4 10 4 9 9 13 12 10 9 -9
53 95 46 107 -4 7 -2 8 4 4 11 -6 15 5 11 30 0 4 3 10 8 13 12 9 56 113 57
138 1 11 5 19 10 15 5 -3 7 2 3 11 -3 9 0 22 7 29 12 13 71 164 71 183 0 6 4
13 9 16 5 4 9 20 10 37 0 17 4 28 9 25 4 -2 8 3 8 11 2 21 3 25 23 69 9 22 14
47 10 59 -4 15 -3 18 6 13 9 -5 10 -1 5 15 -4 14 -3 20 3 17 8 -6 18 24 68
203 9 30 20 68 25 84 6 20 6 32 -2 36 -7 5 -5 10 6 14 12 4 16 14 13 31 -3 13
-1 22 3 19 5 -3 9 -2 9 3 0 4 15 85 34 178 33 159 48 254 62 385 3 30 7 71 10
90 15 129 15 428 0 665 -9 143 -19 267 -21 275 -3 9 -7 42 -10 75 -8 99 -38
260 -49 267 -8 6 -8 8 0 8 8 0 8 16 -1 58 -7 31 -16 74 -20 95 -4 24 -10 35
-17 31 -8 -5 -9 -1 -5 10 10 24 -14 116 -30 116 -7 0 -13 5 -13 11 0 5 5 7 10
4 13 -8 13 7 -2 42 -6 15 -11 31 -10 35 1 4 -3 20 -9 35 -6 15 -12 35 -14 44
-9 46 -29 99 -37 99 -5 0 -6 4 -3 10 3 5 -6 38 -20 73 -14 35 -25 70 -25 78 0
12 -2 11 -10 -1 -6 -9 -10 -10 -10 -3 0 6 -3 20 -6 30 -5 15 -4 15 5 3 6 -8
11 -12 11 -8 0 13 -23 58 -30 58 -4 0 -11 16 -14 35 -6 31 -10 35 -33 31 -14
-3 -22 -2 -18 2 3 4 12 7 17 7 6 0 13 6 16 14 3 8 0 11 -6 7 -5 -3 -13 1 -16
10 -3 8 -2 12 4 9 10 -6 -54 136 -78 172 -8 13 -18 21 -22 18 -5 -3 -12 0 -16
6 -4 8 -3 9 4 5 7 -4 12 -3 12 3 0 5 -4 12 -10 16 -5 3 -7 11 -4 18 2 7 -3 21
-12 32 -8 11 -12 14 -8 6 4 -9 3 -12 -4 -7 -6 4 -9 13 -6 21 3 8 -6 25 -20 38
-14 13 -27 36 -30 51 -3 16 -13 40 -23 54 -10 14 -26 39 -37 56 -10 17 -23 34
-28 37 -5 3 -8 9 -6 12 1 3 -8 20 -22 39 -14 18 -25 35 -25 38 -2 14 -57 90
-66 90 -5 0 -8 3 -6 8 3 4 -6 21 -20 37 -14 17 -22 24 -18 16 6 -9 4 -12 -4
-7 -6 4 -9 11 -6 16 7 12 -61 101 -71 92 -4 -4 -4 -2 0 5 8 14 -50 83 -67 80
-7 -1 -11 4 -9 11 1 7 -2 18 -8 25 -5 7 -33 40 -61 75 -47 57 -59 67 -82 63
-5 -1 -6 3 -2 9 3 5 -1 20 -9 32 -9 12 -16 18 -17 13 0 -6 -4 0 -10 13 -5 14
-13 20 -20 16 -7 -4 -9 -3 -6 3 7 12 -157 175 -167 166 -4 -4 -4 1 0 12 4 11
4 17 -1 13 -4 -4 -16 4 -27 17 -11 14 -25 25 -33 25 -7 0 -19 8 -26 18 -13 16
-12 16 6 2 11 -8 7 0 -10 18 -16 18 -35 30 -42 28 -7 -3 -10 1 -6 10 4 10 0
12 -13 7 -10 -4 -15 -2 -11 4 3 5 -10 25 -29 44 -26 25 -33 29 -29 14 4 -11
-2 -6 -13 10 -17 27 -72 81 -72 71 0 -2 -19 14 -42 35 -23 21 -45 36 -49 33
-4 -2 -9 0 -11 5 -7 19 -90 81 -100 74 -7 -3 -8 -1 -4 5 7 11 -6 17 -27 13 -5
-1 -6 2 -3 7 3 5 -9 19 -26 32 -17 12 -28 16 -24 9 4 -8 -1 -5 -11 7 -10 12
-33 30 -50 40 -18 10 -33 22 -33 27 0 5 -8 6 -17 3 -10 -4 -14 -4 -10 0 10 10
-61 56 -75 48 -6 -4 -8 -3 -5 3 7 11 -58 56 -80 56 -7 0 -13 4 -13 9 0 4 -6 8
-13 8 -8 0 -22 9 -32 20 -11 12 -25 18 -34 15 -8 -3 -12 -3 -8 1 9 9 -51 46
-64 39 -5 -4 -9 -2 -9 4 0 15 -282 151 -315 151 -21 0 -26 3 -16 9 9 6 -1 13
-34 25 -26 8 -52 13 -58 9 -5 -3 -7 -1 -4 4 4 6 -6 16 -23 22 -17 5 -30 7 -30
3 0 -4 -4 -2 -8 3 -8 12 -100 47 -124 48 -10 1 -18 5 -18 10 0 5 -9 7 -20 4
-13 -3 -18 -1 -13 6 4 6 -2 8 -15 5 -12 -4 -20 -2 -17 2 3 5 -9 11 -27 15 -18
4 -59 16 -91 27 -35 12 -69 17 -85 14 -18 -4 -22 -3 -14 2 10 7 -7 14 -55 26
-87 21 -114 27 -133 30 -9 1 -21 5 -27 9 -7 4 -31 9 -55 11 -24 2 -50 6 -58 9
-21 8 -90 21 -120 23 -14 1 -52 7 -85 13 -223 42 -719 60 -975 36z"/>
<path d="M4813 4850 c-319 -45 -610 -264 -748 -563 -52 -113 -76 -216 -82
-357 -6 -147 5 -236 49 -367 55 -167 186 -342 348 -465 206 -157 473 -216 755
-167 310 54 604 305 719 612 79 212 74 499 -13 708 -90 215 -292 423 -508 521
-146 66 -369 99 -520 78z"/>
</g>
</svg>
